<?xml version="1.0" encoding="UTF-8" standalone="no"?>
<svg
   xmlns:svg="http://www.w3.org/2000/svg"
   xmlns="http://www.w3.org/2000/svg"
   width="800.0"
   height="240.0"

>
    <g transform="scale(11.999000154, -11.999000154)   translate(20.7691495293,-6.22063535103)" stroke-width="0.0833402772869"  fill="none">
       <!-- hidden lines -->
       <g  stroke="rgb(160, 160, 160)" fill="none" stroke-dasharray="0.0833402772869,0.0833402772869" >
			<path d=" M -0.808245 1.37093 L 9.10227 -4.386 " />
			<path d=" M -0.808245 1.37093 L 0.71844 4.55383 " />
			<path d=" M 2.33493 1.93618 L 9.99924 -2.51595 " />
			<path d=" M 2.33493 1.93618 L -0.808245 1.37093 " />
			<path d=" M 3.11078 3.16414 L 2.33493 1.93618 " />
			<path d=" M 4.10109 2.27923 L 14.0116 -3.4777 " />
			<path d=" M 4.10109 2.27923 L 3.38265 3.59445 " />
			<path d=" M 2.12538 0.213347 L 12.0359 -5.54358 " />
			<path d=" M 2.12538 0.213347 L 4.10109 2.27923 " />
			<path d=" M 1.52668 -1.47507 L 11.4372 -7.232 " />
			<path d=" M 1.52668 -1.47507 L 2.12538 0.213347 " />
			<path d=" M 4.04122 -1.3893 L 11.8919 -5.94969 " />
			<path d=" M 4.04122 -1.3893 L 1.52668 -1.47507 " />
			<path d=" M 3.77181 -2.52638 L 13.6823 -8.28331 " />
			<path d=" M 3.77181 -2.52638 L 4.04122 -1.3893 " />
			<path d=" M 1.10759 -3.24387 L 11.0181 -9.0008 " />
			<path d=" M 1.10759 -3.24387 L 3.77181 -2.52638 " />
			<path d=" M -1.76616 -4.69049 L 1.10759 -3.24387 " />

       </g>

       <!-- solid lines -->
       <g  stroke="rgb(0, 0, 0)" fill="none">
			<path d=" M -4.10109 0.236073 L 5.80942 -5.52086 " />
			<path d=" M -1.31714 -2.48482 L 8.59337 -8.24175 " />
			<path d=" M -4.10109 0.236073 L -1.31714 -2.48482 " />
			<path d=" M 5.80942 -5.52086 L 8.59337 -8.24175 " />
			<path d=" M -1.82603 4.43487 L 8.08448 -1.32206 " />
			<path d=" M -1.82603 4.43487 L -4.10109 0.236073 " />
			<path d=" M 8.08448 -1.32206 L 5.80942 -5.52086 " />
			<path d=" M 0.71844 4.55383 L 10.629 -1.2031 " />
			<path d=" M 0.71844 4.55383 L -1.82603 4.43487 " />
			<path d=" M 10.629 -1.2031 L 8.08448 -1.32206 " />
			<path d=" M 9.10227 -4.386 L 10.629 -1.2031 " />
			<path d=" M 9.99924 -2.51595 L 12.2454 -3.82075 " />
			<path d=" M 12.2454 -3.82075 L 9.10227 -4.386 " />
			<path d=" M 3.38265 3.59445 L 13.2932 -2.16248 " />
			<path d=" M 3.38265 3.59445 L 3.11078 3.16414 " />
			<path d=" M 13.2932 -2.16248 L 12.2454 -3.82075 " />
			<path d=" M 14.0116 -3.4777 L 13.2932 -2.16248 " />
			<path d=" M 12.0359 -5.54358 L 14.0116 -3.4777 " />
			<path d=" M 11.4372 -7.232 L 12.0359 -5.54358 " />
			<path d=" M 11.8919 -5.94969 L 13.9517 -7.14623 " />
			<path d=" M 13.9517 -7.14623 L 11.4372 -7.232 " />
			<path d=" M 13.6823 -8.28331 L 13.9517 -7.14623 " />
			<path d=" M 11.0181 -9.0008 L 13.6823 -8.28331 " />
			<path d=" M -1.76616 -4.69049 L 8.14435 -10.4474 " />
			<path d=" M 8.14435 -10.4474 L 11.0181 -9.0008 " />
			<path d=" M -1.31714 -2.48482 L -1.76616 -4.69049 " />
			<path d=" M 8.59337 -8.24175 L 8.14435 -10.4474 " />

       </g>
    </g>
    <g transform="translate(20,210.0)" stroke="rgb(0,0,255)">
        <line x1="30" y1="-30" x2="75" y2="-33" stroke-width="3" stroke="#000000" />
         <text x="80" y="-30" style="stroke:#000000">X </text>

        <line x1="30" y1="-30" x2="30" y2="-75" stroke-width="3" stroke="#000000" />
         <text x="25" y="-85" style="stroke:#000000">Y </text>

        <line x1="30" y1="-30" x2="58" y2="-15" stroke-width="3" stroke="#000000" />
         <text x="65" y="-5" style="stroke:#000000">Z </text>
        <!--
            <line x1="0" y1="0" x2="11.999000154" y2="0" stroke-width="3" />
            <text x="0" y="20" style="stroke:#000000">1  mm </text>
        -->
    </g>
</svg>
